<?xml version="1.0" encoding="UTF-8" standalone="no"?>
<svg
   xmlns:dc="http://purl.org/dc/elements/1.1/"
   xmlns:cc="http://creativecommons.org/ns#"
   xmlns:rdf="http://www.w3.org/1999/02/22-rdf-syntax-ns#"
   xmlns:svg="http://www.w3.org/2000/svg"
   xmlns="http://www.w3.org/2000/svg"
   viewBox="0 0 439.55852 70.444999"
   height="70.445"
   width="439.5585"
   xml:space="preserve"
   version="1.1"
   id="svg2"><metadata
     id="metadata8"><rdf:RDF><cc:Work
         rdf:about=""><dc:format>image/svg+xml</dc:format><dc:type
           rdf:resource="http://purl.org/dc/dcmitype/StillImage" /><dc:title></dc:title></cc:Work></rdf:RDF></metadata><defs
     id="defs6"><clipPath
       id="clipPath12"
       clipPathUnits="userSpaceOnUse"><path
         id="path14"
         d="m 85.6475,170.377 970.5125,0 0,849.133 -970.5125,0 0,-849.133 z" /></clipPath><clipPath
       id="clipPath20"
       clipPathUnits="userSpaceOnUse"><path
         id="path22"
         d="m 0,1179.966 1117.008,0 L 1117.008,0 0,0 0,1179.966 Z" /></clipPath></defs><g
     clip-path="url(#clipPath12)"
     transform="matrix(1.25,0,0,-1.25,-230.86275,1256.1385)"
     id="g10"><g
       id="g16"><g
         clip-path="url(#clipPath20)"
         id="g18"><g
           transform="translate(274.7451,994.5767)"
           id="g24"><path
             id="path26"
             style="fill:#0063dc;fill-opacity:1;fill-rule:nonzero;stroke:none"
             d="m 0,0 -10.226,0 0,-16.426 c 0,-2.062 0.004,-4.351 0.004,-6.562 0,-3.43 -0.138,-6.616 -1.309,-8.721 -1.003,-1.807 -2.982,-3.469 -5.4,-4.088 -0.822,-0.211 -1.755,-0.336 -2.719,-0.367 -0.965,0.031 -1.899,0.156 -2.722,0.367 -2.418,0.619 -4.396,2.281 -5.399,4.088 -1.17,2.105 -1.31,5.291 -1.31,8.721 0,2.211 0.005,4.5 0.005,6.562 l 0,16.426 -10.225,0 0,-16.098 c 0,-5.554 -0.248,-10.787 0.98,-15.281 1.169,-4.281 3.097,-7.756 6.161,-10.312 3.001,-2.497 7.008,-4.274 12.32,-4.33 0.065,0 0.125,10e-4 0.19,10e-4 0.064,0 0.124,-10e-4 0.187,-10e-4 5.314,0.056 9.064,1.833 12.062,4.33 3.063,2.556 5.252,6.031 6.421,10.312 1.227,4.494 0.98,9.727 0.98,15.281 L 0,0 Z" /></g><g
           transform="translate(208.0312,958.7778)"
           id="g28"><path
             id="path30"
             style="fill:#0063dc;fill-opacity:1;fill-rule:nonzero;stroke:none"
             d="m 0,0 c -7.244,0 -13.117,5.873 -13.117,13.119 0,7.246 5.873,13.121 13.117,13.121 7.247,0 13.121,-5.875 13.121,-13.121 C 13.121,5.873 7.247,0 0,0 m 0,36.463 c -12.892,0 -23.341,-10.451 -23.341,-23.344 0,-12.89 10.449,-23.342 23.341,-23.342 4.864,0 9.382,1.489 13.121,4.036 l 0,-2.993 10.22,0 0,21.895 -0.01,0 c 0.003,0.135 0.01,0.267 0.01,0.404 0,12.893 -10.448,23.344 -23.341,23.344" /></g><g
           transform="translate(422.9463,958.7778)"
           id="g32"><path
             id="path34"
             style="fill:#0063dc;fill-opacity:1;fill-rule:nonzero;stroke:none"
             d="m 0,0 c -7.246,0 -13.119,5.873 -13.119,13.119 0,7.246 5.873,13.121 13.119,13.121 7.246,0 13.119,-5.875 13.119,-13.121 C 13.119,5.873 7.246,0 0,0 m 0,36.463 c -12.891,0 -23.342,-10.451 -23.342,-23.344 0,-12.89 10.451,-23.342 23.342,-23.342 12.893,0 23.341,10.452 23.341,23.342 0,12.893 -10.448,23.344 -23.341,23.344" /></g><g
           transform="translate(472.6719,958.7778)"
           id="g36"><path
             id="path38"
             style="fill:#0063dc;fill-opacity:1;fill-rule:nonzero;stroke:none"
             d="m 0,0 c -7.246,0 -13.118,5.873 -13.118,13.119 0,7.246 5.872,13.121 13.118,13.121 7.246,0 13.119,-5.875 13.119,-13.121 C 13.119,5.873 7.246,0 0,0 m 0,36.463 c -12.892,0 -23.342,-10.451 -23.342,-23.344 0,-12.89 10.45,-23.342 23.342,-23.342 12.89,0 23.34,10.452 23.34,23.342 0,12.893 -10.45,23.344 -23.34,23.344" /></g><g
           transform="translate(373.2251,958.7778)"
           id="g40"><path
             id="path42"
             style="fill:#0063dc;fill-opacity:1;fill-rule:nonzero;stroke:none"
             d="m 0,0 c -7.247,0 -13.12,5.873 -13.12,13.119 0,7.246 5.873,13.121 13.12,13.121 7.247,0 13.12,-5.875 13.12,-13.121 C 13.12,5.873 7.247,0 0,0 m 0,36.463 c -4.864,0 -9.377,-1.49 -13.118,-4.035 l 0,13.695 -10.22,0 0,-32.953 c 0,-0.016 -0.002,-0.035 -0.002,-0.051 0,-12.89 10.45,-23.342 23.34,-23.342 12.891,0 23.342,10.452 23.342,23.342 0,12.893 -10.451,23.344 -23.342,23.344" /></g><g
           transform="translate(301.8447,958.7778)"
           id="g44"><path
             id="path46"
             style="fill:#0063dc;fill-opacity:1;fill-rule:nonzero;stroke:none"
             d="m 0,0 c -7.246,0 -13.12,5.873 -13.12,13.119 0,7.246 5.874,13.121 13.12,13.121 7.245,0 13.118,-5.875 13.118,-13.121 C 13.118,5.873 7.245,0 0,0 m 23.338,46.123 -10.222,0 0,-13.695 C 9.378,34.973 4.863,36.463 0,36.463 c -12.891,0 -23.342,-10.451 -23.342,-23.344 0,-12.89 10.451,-23.342 23.342,-23.342 12.891,0 23.34,10.452 23.34,23.342 0,0.016 -0.002,0.035 -0.002,0.051 l 0,32.953 z" /></g><g
           transform="translate(516.625,973.6528)"
           id="g48"><path
             id="path50"
             style="fill:#0063dc;fill-opacity:1;fill-rule:nonzero;stroke:none"
             d="m 0,0 c 5.094,6.457 15.588,19.615 16.544,20.922 l -11.967,0 C 0.836,16.328 -2.88,11.275 -6.533,6.869 l 0,24.389 -10.224,0 0,-55.313 10.224,0 0,16.614 c 3.838,-4.625 8.095,-9.75 12.008,-14.539 0.528,-0.649 1.707,-2.075 1.707,-2.075 l 3.226,0 9.304,0 C 13.4,-16.121 6.453,-8.064 0,0" /></g><path
           id="path52"
           style="fill:#0063dc;fill-opacity:1;fill-rule:nonzero;stroke:none"
           d="m 332.424,994.678 10.222,0 0,10.225 -10.222,0 0,-10.225 z" /><path
           id="path54"
           style="fill:#0063dc;fill-opacity:1;fill-rule:nonzero;stroke:none"
           d="m 332.424,949.598 10.222,0 0,39.971 -10.222,0 0,-39.971 z" /></g></g></g></svg>